<svg version="1.2" xmlns="http://www.w3.org/2000/svg" viewBox="0 0 799.9984375 799.9984375" width="800" height="800">
	<style>
		.s0 { fill: #e6e9ed } 
		.s1 { fill: #ccd1d9 } 
		.s2 { fill: #e25397 } 
		.s3 { fill: #4f4f4f } 
		.s4 { fill: #48cfad } 
	</style>
	<g id="Layer 1">
		<g id="Folder 1 copy 2">
			<path class="s0" d="m740.59 512.45l-163.83-269.57v-176.63h-151.41v176.63l-163.79 269.57c-8.17 13.36-12.83 29.07-12.83 45.87 0 48.78 39.52 88.31 88.31 88.31h328.06c48.76 0 88.31-39.53 88.31-88.31 0-16.8-4.69-32.51-12.82-45.87z"/>
			<path class="s1" d="m602 78.85c0 20.91-16.96 37.85-37.85 37.85h-126.16c-20.92 0-37.85-16.94-37.85-37.85 0-20.9 16.93-37.85 37.85-37.85h126.16c20.89 0 37.85 16.95 37.85 37.85z"/>
			<path class="s2" d="m687.61 426.93c-10.61 12.02-23.03 23.01-37.11 32.55-24.66 16.71-48.72 25.43-72.41 27.93-52.49 5.52-103.39-19.5-156.07-56.34-26.65-18.61-55.08-35.11-84.54-45.22l-76.92 126.6c-8.17 13.36-12.83 29.07-12.83 45.87 0 48.78 39.52 88.31 88.31 88.31h328.06c48.76 0 88.31-39.53 88.31-88.31 0-16.8-4.69-32.51-12.82-45.87z"/>
		</g>
		<g id="Folder 1 copy">
			<path id="Layer copy 4" class="s3" d="m578.79 629.92l-174.47-287.09v-188.11h-161.25v188.11l-174.44 287.09c-8.7 14.23-13.66 30.96-13.66 48.86 0 51.94 42.08 94.05 94.05 94.05h349.39c51.92 0 94.04-42.11 94.04-94.05 0-17.89-5-34.63-13.66-48.86z"/>
			<path id="Layer copy" class="s3" d="m431.2 168.14c0 22.26-18.07 40.31-40.31 40.31h-134.36c-22.28 0-40.31-18.05-40.31-40.31 0-22.26 18.03-40.31 40.31-40.31h134.36c22.24 0 40.31 18.05 40.31 40.31z"/>
			<path id="Layer copy 3" class="s0" d="m567.83 635.41l-174.48-287.09v-188.12h-161.25v188.12l-174.44 287.09c-8.7 14.23-13.66 30.96-13.66 48.85 0 51.95 42.08 94.05 94.05 94.05h349.39c51.92 0 94.05-42.1 94.05-94.05 0-17.89-5-34.62-13.66-48.85z"/>
			<path class="s1" d="m420.24 173.62c0 22.27-18.07 40.32-40.32 40.32h-134.36c-22.28 0-40.31-18.05-40.31-40.32 0-22.26 18.03-40.31 40.31-40.31h134.36c22.25 0 40.32 18.05 40.32 40.31z"/>
			<path class="s4" d="m512.48 544.33c-11.3 12.79-24.53 24.51-39.53 34.66-26.26 17.8-51.89 27.09-77.12 29.75-55.9 5.88-110.11-20.77-166.21-60-28.39-19.82-58.66-37.4-90.04-48.17l-81.92 134.84c-8.7 14.23-13.66 30.96-13.66 48.85 0 51.95 42.08 94.05 94.05 94.05h349.39c51.92 0 94.05-42.1 94.05-94.05 0-17.89-5-34.62-13.66-48.85z"/>
		</g>
	</g>
</svg>